<?xml version="1.0" standalone="no"?>
<!DOCTYPE svg PUBLIC "-//W3C//DTD SVG 20010904//EN"
 "http://www.w3.org/TR/2001/REC-SVG-20010904/DTD/svg10.dtd">
<svg version="1.0" xmlns="http://www.w3.org/2000/svg"
 width="192.000000pt" height="60.000000pt" viewBox="0 0 192.000000 60.000000"
 preserveAspectRatio="xMidYMid meet">
<metadata>
Created by potrace 1.10, written by Peter Selinger 2001-2011
</metadata>
<g transform="translate(0.000000,60.000000) scale(0.100000,-0.100000)"
fill="#000000" stroke="none">
<path d="M1043 493 c-25 -5 -30 -19 -10 -25 8 -3 13 -43 15 -141 3 -127 5
-137 23 -137 17 0 19 8 19 79 0 64 4 83 21 105 25 32 47 33 83 5 27 -21 27
-23 21 -106 -7 -83 -7 -85 14 -81 20 3 22 10 26 91 5 87 4 89 -24 118 -35 34
-54 36 -99 9 -42 -26 -42 -26 -42 13 0 38 -10 78 -19 76 -3 -1 -16 -4 -28 -6z"/>
<path d="M893 461 c-13 -11 -23 -24 -23 -30 0 -6 -11 -11 -25 -11 -14 0 -25
-6 -25 -14 0 -9 8 -12 25 -8 l25 4 0 -90 c0 -83 2 -92 22 -106 30 -21 71 -20
91 2 23 26 22 52 -3 52 -13 0 -20 -7 -20 -19 0 -10 -6 -23 -13 -30 -26 -21
-37 9 -37 101 l0 88 33 0 c18 0 42 6 52 14 16 12 12 13 -35 8 l-53 -5 6 32 c4
17 5 31 4 31 -1 -1 -12 -9 -24 -19z"/>
<path d="M605 428 c-20 -9 -18 -13 32 -119 29 -61 51 -115 48 -120 -4 -5 1 -6
9 -3 13 5 14 1 5 -25 -12 -33 -26 -40 -35 -16 -5 11 -11 12 -26 4 -15 -8 -17
-13 -7 -25 16 -20 43 -18 63 5 18 19 106 259 106 287 0 8 -7 14 -15 14 -10 0
-15 -10 -15 -33 0 -18 -10 -63 -23 -100 l-22 -67 -45 100 c-24 56 -47 103 -50
104 -3 2 -14 -1 -25 -6z"/>
<path d="M102 423 c-20 -4 -20 -6 -7 -19 11 -12 15 -39 15 -109 0 -105 0 -105
77 -105 55 0 110 31 119 66 7 27 -27 74 -54 74 -12 0 -12 4 2 25 23 34 20 54
-9 67 -20 9 -34 9 -63 -2 -26 -9 -37 -10 -40 -1 -2 6 -7 10 -10 10 -4 -1 -17
-4 -30 -6z m116 -29 c12 -8 22 -21 22 -29 0 -17 -31 -35 -62 -35 -17 -1 -12
-5 17 -15 71 -25 99 -85 50 -107 -17 -7 -35 -8 -57 -2 l-33 10 -3 83 c-4 107
14 132 66 95z"/>
<path d="M370 423 c-45 -13 -45 -14 -30 -23 11 -7 16 -35 18 -110 4 -90 6
-100 23 -100 14 0 19 7 19 30 0 17 3 30 8 30 4 0 27 -14 51 -30 32 -22 55 -30
85 -29 31 0 36 2 21 8 -11 5 -32 21 -48 36 l-27 28 30 18 c53 33 50 99 -6 135
-22 15 -30 16 -58 5 -54 -22 -64 -23 -68 -8 -1 7 -10 12 -18 10z m124 -48 c50
-46 26 -98 -52 -111 l-42 -7 0 52 c0 29 5 61 10 72 15 26 52 24 84 -6z"/>
<path d="M1393 411 c-66 -31 -91 -98 -58 -161 40 -78 157 -76 205 3 36 58 17
132 -40 162 -38 19 -56 19 -107 -4z m85 -27 c63 -41 51 -174 -15 -174 -26 0
-80 35 -93 61 -17 31 -7 109 16 126 21 15 56 10 92 -13z"/>
<path d="M1620 423 c-45 -13 -45 -14 -30 -23 11 -7 16 -35 18 -110 4 -90 6
-100 23 -100 17 0 19 8 19 79 0 64 4 83 21 105 25 32 47 33 83 5 27 -21 27
-23 21 -106 -7 -83 -7 -85 14 -81 20 3 22 10 27 91 4 87 4 89 -25 118 -36 35
-57 36 -104 5 l-36 -25 -8 23 c-5 14 -14 21 -23 19z"/>
</g>
</svg>
