<svg xmlns="http://www.w3.org/2000/svg" height="75px" width="330px" viewBox="0 0 330 75">
 <g transform="matrix(0.19,0,0,-0.193,-16.3,96.3)" fill="#fff">
  <path d="m1040,493c-20-5-30-19-10-25,10-3,20-43,20-141,0-127,0-137,20-137s20,8,20,79c0,64,0,83,20,105,30,32,50,33,80,5,30-21,30-23,30-106-10-83-10-85,10-81,20,3,20,10,30,91,0,87,0,89-30,118-30,34-50,36-100,9-40-26-40-26-40,13,0,38-10,78-20,76,0-1-10-4-30-6z"/>
  <path d="m893,461c-13-11-23-24-23-30s-11-11-25-11-25-6-25-14c0-9,8-12,25-8l25,4v-90c0-83,2-92,22-106,30-21,71-20,91,2,27,26,27,52-3,52-13,0-20-7-20-19,0-10-6-23-13-30-26-21-37,9-37,101v88h33c18,0,42,6,52,14,15,12,15,13-35,8l-53-5,6,32c4,17,5,31,4,31-1-1-12-9-24-19z"/>
  <path d="m605,428c-20-9-18-13,32-119,29-61,51-115,48-120-4-5,1-6,9-3,13,5,14,1,5-25-12-33-26-40-35-16-5,11-11,12-26,4s-17-13-7-25c16-20,43-18,63,5,18,19,106,259,106,287,0,8-7,14-15,14-10,0-15-10-15-33,0-18-10-63-23-100l-22-67-45,100c-24,56-47,103-50,104-3,2-14-1-25-6z"/>
  <path d="m102,423c-20-4-20-6-7-19,11-12,15-39,15-109,0-105,0-105,77-105,55,0,110,31,119,66,7,27-27,74-54,74-12,0-12,4,2,25,23,34,20,54-9,67-20,9-34,9-63-2-26-9-37-10-40-1-2,6-7,10-10,10-4-1-17-4-30-6zm116-29c12-8,22-21,22-29,0-17-31-35-62-35-17-1-12-5,17-15,71-25,99-85,50-107-17-7-35-8-57-2l-33,10-3,83c-4,107,14,132,66,95z"/>
  <path d="m370,423c-45-13-45-14-30-23,11-7,16-35,18-110,4-90,6-100,23-100,14,0,19,7,19,30,0,17,3,30,8,30,4,0,27-14,51-30,32-22,55-30,85-29,31,0,36,2,21,8-11,5-32,21-48,36l-27,28,30,18c53,33,50,99-6,135-22,15-30,16-58,5-54-22-64-23-68-8-1,7-10,12-18,10zm124-48c50-46,26-98-52-111l-42-7v52c0,29,5,61,10,72,15,26,52,24,84-6z"/>
  <path d="m1390,411c-60-31-90-98-50-161,40-78,150-76,200,3,40,58,20,132-40,162-40,19-60,19-110-4zm90-27c60-41,50-174-20-174-20,0-80,35-90,61-20,31-10,109,20,126,20,15,50,10,90-13z"/>
  <path d="m1620,423c-40-13-40-14-30-23,10-7,20-35,20-110,0-90,0-100,20-100s20,8,20,79c0,64,0,83,20,105,30,32,50,33,80,5,30-21,30-23,30-106-10-83-10-85,10-81,20,3,20,10,30,91,0,87,0,89-30,118-30,35-60,36-100,5l-40-25-10,23c0,14-10,21-20,19z"/>
 </g>
</svg>
